<svg xmlns="http://www.w3.org/2000/svg" viewBox="0 0 563.5 112.1" aria-describedby="affinipay-logo-title-id"><title id="affinipay-logo-title-id">Affinipay logo</title><path d="M39,49.3c6.7-6.6,17.9-7.2,30.5-3a77.7,77.7,0,0,1,14,6.3A111,111,0,0,1,107.1,71a111.3,111.3,0,0,1,17.7,23.2,77.2,77.2,0,0,0,6.3-14A85.9,85.9,0,0,0,97.5,46.5a72.7,72.7,0,0,0-14-5.9c-17-5.2-33.8-2.9-44.7,7.8s-13.3,26.5-8.9,43a74,74,0,0,1,5.5-11.9C31.5,66.9,32.4,55.9,39,49.3Z" transform="translate(-26.4 -38)" style="fill:#143055"/><path d="M136.3,92.3a72.4,72.4,0,0,1-5.8,14.6c4.8,13.6,4.3,25.7-2.8,32.6s-19,7.3-32.4,2.4a79.6,79.6,0,0,1-12.6-6A114.9,114.9,0,0,1,41.5,93.6a80.8,80.8,0,0,0-6,12.5,86.2,86.2,0,0,0,34.6,35.5,74.3,74.3,0,0,0,12.6,5.4c17.4,5.7,34.8,3.5,45.9-7.5S142.4,110.3,136.3,92.3Z" transform="translate(-26.4 -38)" style="fill:#143055"/><path d="M37.8,138.8c-7-7.1-7.3-19.2-2.3-32.7a80.9,80.9,0,0,1,6-12.5,115,115,0,0,1,41.9-41,77.7,77.7,0,0,0-14-6.3A85.8,85.8,0,0,0,35.4,79.5a74.1,74.1,0,0,0-5.5,11.9c-6.3,17.9-4.3,36,7,47.4s28.3,13.5,45.8,8.1a74.2,74.2,0,0,1-12.6-5.4C56.7,146.3,44.7,145.8,37.8,138.8Z" transform="translate(-26.4 -38)" style="fill:#037748"/><path d="M128,49.1c-10.7-10.9-27.4-13.4-44.5-8.5a72.6,72.6,0,0,1,14,5.9c12.7-4,23.8-3.2,30.4,3.5s7.2,17.7,3.1,30.2a77.3,77.3,0,0,1-6.3,14,110.2,110.2,0,0,1-18.6,23.8,110.8,110.8,0,0,1-23.4,17.8,79.5,79.5,0,0,0,12.6,6,86.2,86.2,0,0,0,35.2-35,72.4,72.4,0,0,0,5.8-14.6C140.9,75.8,138.5,59.7,128,49.1Z" transform="translate(-26.4 -38)" style="fill:#037748"/><path d="M76.1,108v-1.3c3-.4,3.4-.7,2.8-2.6s-1.6-4.4-2.6-7.3h-10c-.8,2.1-1.5,4.1-2.1,6.1s-.6,3.4,2.9,3.8V108H56.9v-1.3c3-.4,3.6-.7,5.3-4.9l9.8-24.8,1.5-.4c2.9,8.1,6.1,17.1,9.1,25.3,1.5,4.1,2.1,4.5,5.2,4.8V108H76.1ZM71.5,82.8h-.1l-4.4,12h8.7Z" transform="translate(-26.4 -38)" style="fill:#143055"/><path d="M99.5,76.7c3.4,0,4.5.6,6.5,2a8,8,0,0,1,3.1,6.8c0,6.2-2.3,10.3-7,10.9H95.7V102c0,4.1.4,4.3,4.8,4.6V108H87.3v-1.3c3.9-.3,4.2-.7,4.2-4.7V82.7c0-4.2-.4-4.4-3.9-4.7V76.7ZM95.6,94.4h3.6c3.1,0,6.9-2.6,6.9-8.7s-3.3-7.4-7.3-7.4a4.5,4.5,0,0,0-2.7.6c-.4.3-.5.9-.5,2.3V94.4Z" transform="translate(-26.4 -38)" style="fill:#037748"/><path d="M189.5,115.1v-1.8c4-.5,4.6-1,3.8-3.5s-2.1-6-3.5-9.9H176.1c-1,2.9-2,5.6-2.8,8.3s-.8,4.7,4,5.1v1.8H163.4v-1.8c4-.6,4.9-1,7.2-6.6L183.8,73l2-.6c4,11,8.3,23.2,12.4,34.4,2.1,5.5,2.9,6.1,7.1,6.5v1.8Zm-6.3-34.3h-.1l-6,16.4h11.8Z" transform="translate(-26.4 -38)" style="fill:#143055"/><path d="M248.9,83.1a12.8,12.8,0,0,0-1.8-5.1c-1-1.8-2.4-2.3-7.3-2.3H235c-1.9,0-2.1.1-2.1,2V92.9h6.6c5.8,0,6.1-.6,6.9-4.7h1.8v12.3h-1.8c-.8-4.4-1.1-5.1-6.9-5.1h-6.6V107c0,5.5.5,5.9,6.3,6.3v1.8H221.8v-1.8c5.1-.4,5.6-.8,5.6-6.3V81.5c0-5.6-.5-5.9-5.5-6.3V73.4h28.2c0,2.3.3,6.4.6,9.4Z" transform="translate(-26.4 -38)" style="fill:#143055"/><path d="M295.7,83.1a12.8,12.8,0,0,0-1.8-5.1c-1-1.8-2.4-2.3-7.3-2.3h-4.9c-1.9,0-2.1.1-2.1,2V92.9h6.6c5.8,0,6.1-.6,6.9-4.7H295v12.3h-1.8c-.8-4.4-1.1-5.1-6.9-5.1h-6.6V107c0,5.5.5,5.9,6.4,6.3v1.8H268.6v-1.8c5.1-.4,5.6-.8,5.6-6.3V81.5c0-5.6-.5-5.9-5.5-6.3V73.4H297c0,2.3.3,6.4.6,9.4Z" transform="translate(-26.4 -38)" style="fill:#143055"/><path d="M315.2,115.1v-1.8c5.3-.4,5.8-.8,5.8-6.2V81.4c0-5.5-.5-5.8-5.8-6.2V73.4h17v1.8c-5.3.4-5.8.8-5.8,6.2v25.7c0,5.5.5,5.8,5.8,6.2v1.8h-17Z" transform="translate(-26.4 -38)" style="fill:#143055"/><path d="M393.6,75.2c-3.6.2-5.1,1-5.4,3.8a89.4,89.4,0,0,0-.4,10.8v25.9h-2L358.5,82h-.1V98.1a108.3,108.3,0,0,0,.4,10.8c.3,3.3,1.8,4,6.2,4.3v1.8H349.7v-1.8c3.7-.2,5.3-1,5.6-4.2s.4-5.1.4-11V84c0-4.7-.1-4.9-1.3-6.5s-2.7-2.1-5.7-2.4V73.4h9.5L385,105.6h.2V89.8a95.3,95.3,0,0,0-.4-10.6c-.3-2.9-1.9-3.7-6.3-4V73.4h15.1v1.8Z" transform="translate(-26.4 -38)" style="fill:#143055"/><path d="M410.4,115.1v-1.8c5.3-.4,5.8-.8,5.8-6.2V81.4c0-5.5-.5-5.8-5.8-6.2V73.4h17v1.8c-5.3.4-5.8.8-5.8,6.2v25.7c0,5.5.5,5.8,5.8,6.2v1.8h-17Z" transform="translate(-26.4 -38)" style="fill:#143055"/><path d="M513.4,115.1v-1.8c4-.5,4.6-1,3.8-3.5s-2.1-6-3.5-9.9H500c-1,2.9-2,5.6-2.8,8.3s-.8,4.7,4,5.1v1.8H487.2v-1.8c4-.6,4.9-1,7.2-6.6L507.7,73l2-.6c4,11,8.3,23.2,12.4,34.4,2,5.5,2.9,6.1,7.1,6.5v1.8Zm-6.3-34.3H507l-6,16.4h11.8Z" transform="translate(-26.4 -38)" style="fill:#037748"/><path d="M577.8,75.2c-4.4.5-5.1,1.1-7.6,5.1s-5.1,8.4-8.2,14a7.3,7.3,0,0,0-1,4v8.7c0,5.4.5,5.8,6.4,6.2v1.8H549.2v-1.8c5.7-.4,6.3-.8,6.3-6.2V98.5c0-1.3-.3-1.9-1.4-3.8-2.2-4-4.5-8.1-8.1-14.1-2.6-4.4-3.3-5.1-7.1-5.5V73.4h15.3v1.8c-4.6.6-4.4,1.3-3.2,3.5,2.7,5.1,5.8,10.4,8.6,15.2,2.4-4.2,5.8-10.5,7.6-14.4s1.3-3.7-3.7-4.2V73.4h14.2v1.8Z" transform="translate(-26.4 -38)" style="fill:#037748"/><path d="M461.5,73.4c4.5,0,6,.8,8.6,2.7s4.2,4.8,4.2,9c0,8.3-3.1,13.6-9.3,14.5-1,.1-3.2.3-3.9.2h-4.6v7.3c0,5.4.6,5.8,6.3,6.1V115H445.3v-1.8c5.1-.4,5.6-.9,5.6-6.2V81.4c0-5.6-.5-5.9-5.2-6.2V73.4ZM456.3,97h4.8c4.2,0,9.1-3.5,9.1-11.6s-4.4-9.9-9.7-9.9c-1.8,0-3.1.3-3.6.8s-.7,1.2-.7,3Z" transform="translate(-26.4 -38)" style="fill:#037748"/><path d="M589.9,58.5a6,6,0,0,1-1.7,4.3,5.5,5.5,0,0,1-8.1,0,6,6,0,0,1-1.7-4.3,6.1,6.1,0,0,1,2.1-4.6,5.4,5.4,0,0,1,6-.9,5.6,5.6,0,0,1,2.4,2.2A6.2,6.2,0,0,1,589.9,58.5Zm-5.7-5.1a4.3,4.3,0,0,0-3.3,1.5,5.1,5.1,0,0,0-1.4,3.6,5.2,5.2,0,0,0,1.4,3.7,4.5,4.5,0,0,0,6.8,0,5.3,5.3,0,0,0,1.4-3.7,6,6,0,0,0-.5-2.4,5,5,0,0,0-1.4-1.8A4.6,4.6,0,0,0,584.2,53.3Zm.6,5.7,2.1,2.9h-1.5l-2-2.8V62h-1.3V55h1.3a3.2,3.2,0,0,1,2,.5,2,2,0,0,1,.7,1.6,2.1,2.1,0,0,1-.4,1.2,1.8,1.8,0,0,1-1,.7Zm-1.4-1h.2c.9,0,1.4-.3,1.4-1s-.4-.9-1.3-.9h-.3v1.9Z" transform="translate(-26.4 -38)" style="fill:#143256"/></svg>